<svg id="Layer_1" enable-background="new 0 0 512 512" viewBox="0 0 512 512" xmlns="http://www.w3.org/2000/svg" width="300" height="300" version="1.1" xmlns:xlink="http://www.w3.org/1999/xlink" xmlns:svgjs="http://svgjs.dev/svgjs"><g width="100%" height="100%" transform="matrix(1,0,0,1,0,0)"><path d="m509.49 291.129-66.287-67.306c-1.313-1.333-3.107-2.085-4.979-2.085h-25.36c6.171-11.944 9.659-25.489 9.659-39.834 0-48.033-39.065-87.11-87.082-87.11-40.451 0-74.549 27.716-84.305 65.154h-152.521c-3.86 0-6.988 3.129-6.988 6.988v61.675h-52.367c-3.86 0-6.988 3.129-6.988 6.988s3.129 6.988 6.988 6.988h52.367v23.794h-84.139c-3.86 0-6.988 3.129-6.988 6.988s3.129 6.988 6.988 6.988h84.138v23.82h-52.366c-3.86 0-6.988 3.129-6.988 6.988s3.129 6.988 6.988 6.988h52.367v61.675c0 3.86 3.129 6.988 6.988 6.988h46.384c3.283 17.278 18.49 30.385 36.708 30.385 18.232 0 33.45-13.108 36.735-30.385h153.525 31.276c3.283 17.278 18.49 30.385 36.708 30.385s33.426-13.108 36.708-30.385h27.853c3.86 0 6.988-3.129 6.988-6.988v-83.799c0-1.832-.722-3.593-2.01-4.9zm-17.601 2.046h-64.527v-57.46h7.937zm-156.447-184.403c40.31 0 73.105 32.807 73.105 73.133 0 40.31-32.795 73.104-73.105 73.104-40.326 0-73.133-32.794-73.133-73.104 0-40.326 32.807-73.133 73.133-73.133zm-229.839 209.384h75.707c3.86 0 6.988-3.129 6.988-6.988s-3.129-6.988-6.988-6.988h-75.707v-23.82h42.72c3.86 0 6.988-3.129 6.988-6.988s-3.129-6.988-6.988-6.988h-42.72v-23.794h75.707c3.86 0 6.988-3.129 6.988-6.988s-3.129-6.988-6.988-6.988h-75.707v-54.687h143.098c-.24 2.629-.369 5.289-.369 7.979 0 48.016 39.077 87.081 87.11 87.081 10.364 0 20.309-1.824 29.536-5.161v109.018h-146.536c-3.285-17.278-18.503-30.385-36.735-30.385-18.218 0-33.426 13.108-36.708 30.385h-39.396zm76.104 85.072c-12.902 0-23.397-10.495-23.397-23.397s10.495-23.397 23.397-23.397c12.916 0 23.424 10.495 23.424 23.397s-10.508 23.397-23.424 23.397zm258.244 0c-12.902 0-23.397-10.495-23.397-23.397s10.495-23.397 23.397-23.397 23.397 10.495 23.397 23.397-10.496 23.397-23.397 23.397zm36.708-30.385c-3.283-17.278-18.49-30.385-36.708-30.385s-33.426 13.108-36.708 30.385h-24.287v-115.531c9.611-5.567 18.065-12.917 24.907-21.597h9.523v64.448c0 3.86 3.129 6.988 6.988 6.988h77.15v65.692zm-141.217-124.737c36.504 0 66.202-29.698 66.202-66.201 0-36.504-29.698-66.203-66.202-66.203s-66.202 29.699-66.202 66.203c0 36.503 29.698 66.201 66.202 66.201zm0-118.428c28.797 0 52.226 23.428 52.226 52.227 0 28.797-23.428 52.225-52.226 52.225s-52.226-23.428-52.226-52.225c.001-28.799 23.429-52.227 52.226-52.227zm-6.987 52.282-.311-39.042c-.031-3.859 3.072-7.013 6.932-7.043.019-.001.038-.001.057-.001 3.833 0 6.956 3.093 6.986 6.933l.289 36.354 12.018 13.099c2.609 2.844 2.419 7.264-.425 9.873-1.342 1.231-3.034 1.839-4.722 1.839-1.89 0-3.773-.762-5.151-2.264l-13.834-15.079c-1.171-1.275-1.826-2.939-1.839-4.669z" fill="#7cb141" fill-opacity="1" data-original-color="#000000ff" stroke="none" stroke-opacity="1"/></g></svg>