<svg id="Layer_1" enable-background="new 0 0 48 48" viewBox="0 0 48 48" xmlns="http://www.w3.org/2000/svg" width="300" height="300" version="1.1" xmlns:xlink="http://www.w3.org/1999/xlink" xmlns:svgjs="http://svgjs.dev/svgjs"><g width="100%" height="100%" transform="matrix(1,0,0,1,0,0)"><g><path d="m14.64 47.69c5.42 0 10.14-3.07 12.51-7.57h16.87c1.92 0 3.48-1.56 3.48-3.48v-6.06-8.4-6.07c0-1.92-1.56-3.48-3.48-3.48h-2.19l-7.58-12.32-20.04 12.32h-2.66c-1.92 0-3.49 1.56-3.49 3.48v4.93c-4.49 2.37-7.56 7.08-7.56 12.51 0 7.79 6.34 14.14 14.14 14.14zm30.86-19.11h-8.39c-1.21 0-2.2-.99-2.2-2.2s.99-2.2 2.2-2.2h8.39zm-11.91-25.52 5.88 9.57h-21.44zm-23.52 13.05c0-.82.67-1.48 1.49-1.48h31.5.96c.82 0 1.48.66 1.48 1.48v6.07h-8.39c-2.32 0-4.2 1.88-4.2 4.2s1.88 4.2 4.2 4.2h8.39v6.06c0 .82-.66 1.48-1.48 1.48h-16.01c.49-1.44.77-2.97.77-4.57 0-7.8-6.34-14.14-14.14-14.14-1.6 0-3.14.28-4.58.77v-4.07zm4.57 5.3c6.69 0 12.14 5.45 12.14 12.14s-5.45 12.14-12.14 12.14-12.14-5.45-12.14-12.14 5.45-12.14 12.14-12.14z" fill="#7cb141" fill-opacity="1" data-original-color="#000000ff" stroke="none" stroke-opacity="1"/><path d="m11.73 40.19 11.01-11.02-1.41-1.41-9.6 9.6-5.01-5.01-1.41 1.42z" fill="#7cb141" fill-opacity="1" data-original-color="#000000ff" stroke="none" stroke-opacity="1"/></g></g></svg>