<svg height="300" viewBox="0 0 48.001 37.819" width="300" xmlns="http://www.w3.org/2000/svg" version="1.1" xmlns:xlink="http://www.w3.org/1999/xlink" xmlns:svgjs="http://svgjs.dev/svgjs"><g width="100%" height="100%" transform="matrix(1,0,0,1,0,0)"><g id="Layer_2" data-name="Layer 2"><g id="Layer_1-2" data-name="Layer 1"><g id="order_tracking" fill="rgb(0,0,0)" data-name="order tracking"><path d="m13.818 33.05h-13.09a.727.727 0 1 0 0 1.454h13.09a.727.727 0 1 0 0-1.454z" fill="#7cb141" fill-opacity="1" data-original-color="#000000ff" stroke="none" stroke-opacity="1"/><path d="m12.166 20.2h4.76a.727.727 0 1 0 0-1.454h-4.76a4.526 4.526 0 0 1 0-9.052h.761a.727.727 0 0 0 0-1.454h-.761a5.98 5.98 0 1 0 0 11.96z" fill="#7cb141" fill-opacity="1" data-original-color="#000000ff" stroke="none" stroke-opacity="1"/><path d="m31.948 25.605a.822.822 0 0 0 -.053-.117c-.014-.022-.029-.041-.044-.061a.724.724 0 0 0 -.077-.088.667.667 0 0 0 -.064-.053c-.015-.012-.027-.026-.044-.038a.382.382 0 0 0 -.051-.023.481.481 0 0 0 -.041-.027l-4.836-2.198c2.471-3.535 6.153-9.564 6.153-14.1a8.891 8.891 0 1 0 -17.782 0c0 4.539 3.682 10.568 6.154 14.1l-4.837 2.2c-.014.006-.025.018-.039.025s-.036.014-.053.025a.573.573 0 0 0 -.045.039.517.517 0 0 0 -.062.052.607.607 0 0 0 -.078.089c-.015.02-.03.04-.043.06a.739.739 0 0 0 -.054.118.424.424 0 0 0 -.023.059.708.708 0 0 0 -.029.2v7.917a.729.729 0 0 0 .426.662l7.274 3.307c.011.006.024 0 .035.009a.649.649 0 0 0 .532 0 .237.237 0 0 0 .036-.009l7.272-3.314a.728.728 0 0 0 .425-.662v-7.917a.707.707 0 0 0 -.028-.2c-.006-.016-.017-.034-.024-.055zm-15.384-16.713a7.436 7.436 0 1 1 14.872 0c0 5.191-5.611 12.984-7.435 15.378-1.825-2.394-7.437-10.187-7.437-15.378zm6.709 27.07-5.818-2.654v-6.317l.855.39 4.963 2.261zm.727-7.587-5.52-2.515 3.646-1.66c.723.985 1.229 1.615 1.309 1.714a.726.726 0 0 0 1.13 0c.08-.1.587-.729 1.31-1.713l3.644 1.66zm6.544 4.933-5.817 2.654v-6.32l2.319-1.057 3.5-1.594z" fill="#7cb141" fill-opacity="1" data-original-color="#000000ff" stroke="none" stroke-opacity="1"/><path d="m28.492 8.968a4.492 4.492 0 1 0 -4.492 4.491 4.5 4.5 0 0 0 4.492-4.491zm-7.529 0a3.037 3.037 0 1 1 3.037 3.032 3.04 3.04 0 0 1 -3.037-3.032z" fill="#7cb141" fill-opacity="1" data-original-color="#000000ff" stroke="none" stroke-opacity="1"/><path d="m40.122 18.747h-9.046a.727.727 0 1 0 0 1.454h9.046a6.425 6.425 0 0 1 0 12.849h-5.939a.727.727 0 1 0 0 1.454h5.939a7.879 7.879 0 1 0 0-15.757z" fill="#7cb141" fill-opacity="1" data-original-color="#000000ff" stroke="none" stroke-opacity="1"/><path d="m35.072 9.7 3.52.008 2.527 2.605a.725.725 0 0 0 .522.22h.015a.728.728 0 0 0 .529-.243l5.631-6.342a.727.727 0 0 0 -1.087-.966l-5.112 5.755-2.2-2.261a.707.707 0 0 0 -.234-.162.754.754 0 0 0 -.277-.057l-3.827-.009a.727.727 0 0 0 0 1.454z" fill="#7cb141" fill-opacity="1" data-original-color="#000000ff" stroke="none" stroke-opacity="1"/></g></g></g></g></svg>